<?xml version="1.0" encoding="UTF-8"?>
<svg id="Layer_2" data-name="Layer 2" xmlns="http://www.w3.org/2000/svg" xmlns:xlink="http://www.w3.org/1999/xlink" viewBox="0 0 307.5 368.5">
  <defs>
    <style>
      .cls-1 {
        clip-path: url(#clippath);
      }

      .cls-2 {
        fill: none;
      }

      .cls-2, .cls-3, .cls-4, .cls-5, .cls-6 {
        stroke-width: 0px;
      }

      .cls-4 {
        fill: #2b08c2;
      }

      .cls-5 {
        fill: #1d1d1b;
      }

      .cls-6 {
        fill: #fafafc;
      }
    </style>
    <clipPath id="clippath">
      <rect class="cls-2" width="307.5" height="368.5"/>
    </clipPath>
  </defs>
  <g id="Layer_1-2" data-name="Layer 1">
    <g class="cls-1">
      <path class="cls-6" d="m216.28,347.71c-.15-.61.27-1.39-.42-1.63-.76-.27-.76.7-1.17,1.04-.06.05-.08.16-.12.23-2.53,4.98-5.62,9.59-9.05,13.99-1.19,1.53-2.51,3.02-3.29,4.85-.3.7-.5,1.56.28,2.07.7.46,1.46.2,2.11-.29.25-.19.47-.42.67-.65,2.07-2.32,4.25-4.56,6.01-7.14,2.61-3.8,4.35-7.95,4.97-12.47m-5.06-7.21c-.05-.59-.13-1.05-.61-1.24-.6-.24-1.15-.04-1.59.39-1.25,1.22-2.16,2.71-3.2,4.1-4.18,5.54-8.04,11.34-13.23,16.04-.82.75-1.71,1.43-2.55,2.15-.33.28-.8.55-.59,1.08.24.6.81.47,1.28.4.57-.09,1.13-.25,1.67-.46,1.59-.62,3.02-1.52,4.4-2.5,6.76-4.78,10.66-11.69,14.13-18.93.17-.35.23-.76.3-1.02m-124.32-99.29c1.26.01,2.48-.22,3.71-.46,10.81-2.05,20.46-6.94,29.97-12.19.54-.3,1.15-.71.91-1.45-.24-.74-.98-.7-1.6-.64-1.71.18-3.27.87-4.82,1.54-9.53,4.12-18.9,8.65-29.02,11.25-.57.15-1.4.24-1.29,1.08.11.84.93.82,1.6.87.18.01.36,0,.54,0m90.33,121.03c.71-.04,1.44-.24,2.14-.52,4.62-1.84,8.61-4.66,12.23-8.01,4.97-4.6,8.41-10.23,10.74-16.56.25-.67.49-1.34.67-2.03.19-.72.23-1.52-.59-1.85-.76-.31-1.21.38-1.62.89-.36.45-.63.97-.91,1.48-3.46,6.19-7.75,11.74-12.8,16.71-3.18,3.13-6.83,5.7-10.4,8.37-.35.26-.91.5-.78.97.15.51.75.53,1.31.55m-15.25-3.23c1.37-.05,2.55-.27,3.69-.67,4.27-1.52,8.3-3.52,11.92-6.25,6.61-4.99,11.58-11.44,16.17-18.22.15-.22.26-.47.36-.71.21-.52.3-1.08-.14-1.51-.49-.48-1.08-.34-1.62-.06-.88.46-1.56,1.18-2.21,1.92-3.4,3.78-6.79,7.56-10.19,11.34-4.71,5.24-10.61,8.8-16.85,11.87-.76.37-1.56.69-2.19,1.27-.54.49-.43.85.28.99.3.06.62.04.78.04m-70.72-107.93c2.47-.16,5.28-.68,8.09-1.12,11.8-1.85,23.1-5.25,33.67-10.89.8-.43,2.02-.82,1.62-1.93-.37-1.01-1.59-.61-2.39-.41-2.07.52-4.12,1.14-6.15,1.83-7.84,2.68-15.6,5.61-23.72,7.42-4.17.93-8.35,1.89-12.43,3.19-.6.19-1.5.33-1.39,1.18.11.89,1,.68,1.64.73.22.02.45,0,1.05,0m42.7,87.74c2.9-.02,6.22-.77,9.07-2.06,5.91-2.67,11.51-5.85,16.45-10.1,4.03-3.47,7.16-7.68,9.81-12.25.33-.57.63-1.31-.01-1.84-.69-.57-1.39-.14-1.91.36-1.19,1.14-2.37,2.3-3.44,3.55-4.68,5.48-9.72,10.51-16.09,14.1-4.4,2.48-8.79,4.91-13.76,6.1-.73.17-1.44.48-2.15.72-.35.12-.75.29-.73.68.02.48.51.6.9.65.62.08,1.24.07,1.87.1m-3.37-8.97c.2-.03.51-.07.82-.11,4.35-.59,8.34-2.32,12.23-4.17,7.95-3.79,15.49-8.26,21.96-14.35,1.23-1.16,2.57-2.22,3.47-3.68.26-.43.45-.92.04-1.36-.38-.41-.89-.42-1.36-.18-.71.36-1.45.71-2.09,1.17-6.05,4.33-12.11,8.65-18.47,12.52-5.46,3.32-11.17,6.12-17.19,8.29-.7.25-2.08.07-1.93.97.16.97,1.52.76,2.53.89m22.56,22.79c.6-.08,1.35-.17,2.09-.29,5.71-.9,10.54-3.58,14.99-7.2,5.57-4.54,10.6-9.53,14.34-15.71.25-.42.52-.84.69-1.29.19-.52.2-1.07-.29-1.47-.46-.38-.97-.37-1.51-.14-.84.37-1.44,1.04-2.07,1.67-3.92,3.89-7.83,7.8-11.76,11.68-4.3,4.25-9.07,7.75-14.94,9.54-1.15.35-2.24.87-3.36,1.32-.42.17-.92.34-.87.88.05.56.56.77,1.07.85.48.08.97.09,1.62.15m-48.13-66.03c.64-.04,1.18-.05,1.71-.12,1.46-.2,2.92-.37,4.36-.65,13.57-2.63,26.54-6.98,38.69-13.64.35-.19.71-.39,1.02-.64.36-.29.58-.69.43-1.18-.16-.54-.66-.64-1.08-.62-.66.03-1.33.15-1.97.33-3.78,1.08-7.39,2.63-11.02,4.11-10.01,4.07-20.18,7.63-30.71,10.1-1.04.24-2.1.43-3.14.67-.46.1-1.09.12-1.05.79.04.65.69.63,1.13.72.56.11,1.15.09,1.63.12m7.92,9.62c1.36-.15,2.92-.23,4.46-.49,11.5-1.97,22.5-5.43,32.75-11.1,1.13-.62,2.34-1.12,3.33-1.97.42-.36.79-.81.58-1.39-.23-.61-.8-.83-1.41-.8-.48.03-.98.11-1.43.27-1.67.61-3.34,1.24-4.99,1.91-9.25,3.77-18.54,7.4-28.22,9.94-2.37.62-4.76,1.15-7.14,1.73-.51.12-1.14.17-1.12.9.02.8.71.82,1.27.89.57.07,1.16.06,1.93.1m-18.71-33.97c1.33-.11,2.67-.17,3.99-.34,9.22-1.24,18.15-3.7,26.99-6.5,6.8-2.16,12.98-5.64,19.27-8.9.7-.36,1.63-.86,1.29-1.78-.37-1-1.45-.74-2.24-.53-1.25.33-2.47.77-3.67,1.25-7.26,2.86-14.38,6.05-21.81,8.45-7.94,2.56-15.96,4.78-24.08,6.67-.63.15-1.71.17-1.58,1.06.13.87,1.16.54,1.83.62m26.53,60.1c.29-.03.83-.08,1.35-.16,4.28-.61,8.24-2.25,12.13-4.02,9.07-4.12,17.73-8.96,25.46-15.33,1.03-.85,2.09-1.66,3-2.65.49-.53,1.03-1.11.47-1.86-.53-.71-1.24-.54-1.91-.16-.15.09-.32.16-.47.26-6.1,3.77-12.19,7.53-18.29,11.31-4.86,3.01-9.93,5.61-15.17,7.86-2.77,1.19-5.59,2.26-8.57,2.86-.45.09-.89.26-.95.79-.07.62.51.65.87.85.57.31,1.22.22,2.08.24m-19.61-49.22c3.21-.17,6.2-.64,9.19-1.1,13.41-2.06,25.66-7.31,37.49-13.68.56-.3,1.17-.64.97-1.41-.21-.79-.93-.88-1.62-.88-.31,0-.62.07-.92.12-2.57.45-4.97,1.48-7.3,2.56-10.57,4.87-21.56,8.47-32.9,11.01-2.26.51-4.55.87-6.82,1.35-.59.13-1.55.01-1.5.97.04.81.88.74,1.47.84.7.12,1.41.16,1.95.21M18.84,141.24c-1.56,0-3.12-.06-4.68.02-1.43.07-2.83.37-4.09,1.1-.3.17-.72.41-.62.78.1.36.53.41.91.37,2.54-.29,5.06-.15,7.6.1,9.42.92,18.48,3.29,27.33,6.59,5.4,2.01,10.39,4.91,15.65,7.22,1.48.65,2.54.45,3.04-.55.49-.96-.05-1.94-1.52-2.69-1.19-.6-2.42-1.15-3.61-1.75-5.85-2.96-11.8-5.68-18.11-7.56-7.16-2.12-14.38-3.83-21.91-3.63m95.6,170.26c.68-.07,1.61-.11,2.53-.26,4.99-.8,9.74-2.4,14.53-3.98,10.07-3.32,19.04-8.54,27.33-15.06.57-.45.99-1.03.78-1.68-.26-.82-1.09-.8-1.82-.69-.35.05-.7.16-1.01.32-2.13,1.12-4.25,2.24-6.36,3.39-6.88,3.75-13.76,7.51-21.03,10.45-5.85,2.37-11.72,4.75-18,5.79-.28.05-.71.02-.78.4-.07.41.32.62.59.81.91.64,1.98.38,3.25.5M3.69,177.86c-1.02.05-1.91.07-2.79.15-.33.03-.79.05-.88.48-.09.5.34.72.72.82,1.2.33,2.42.6,3.63.88,15.46,3.56,30.72,7.88,45.94,12.35,2.48.73,5,1.3,7.52,1.88.7.16,1.54.11,1.76-.77.21-.82-.5-1.18-1.12-1.45-2.5-1.06-4.95-2.32-7.54-3.09-11.31-3.39-22.61-6.83-34.18-9.22-4.36-.9-8.7-1.95-13.06-2.03m137.85,168.06c2.98.01,5.81-.75,8.64-1.58,4.13-1.21,8.08-2.77,11.56-5.38,5.21-3.9,10.19-8.05,14.24-13.22,1.29-1.65,2.68-3.21,3.97-4.85.49-.62.74-1.44.18-2.1-.62-.74-1.46-.47-2.21-.12-.24.11-.45.29-.65.46-2.94,2.58-5.88,5.17-8.82,7.75-3.14,2.76-6.24,5.56-9.43,8.26-4.2,3.55-9.25,5.45-14.4,7.11-1.86.6-3.74,1.17-5.61,1.77-.38.12-.84.33-.84.76,0,.47.43.75.87.91.82.29,1.67.24,2.51.24M35.26,111.16c.36.4.64.35.9.33,5.74-.39,11.26.84,16.75,2.28,7.51,1.98,14.69,5,22.09,7.31,5.35,1.67,10.4,3.99,15.16,6.95,1.37.85,2.79,1.6,4.35,2.04.8.23,1.66.37,2.17-.47.54-.89-.12-1.5-.71-2.07-.26-.25-.55-.46-.82-.69-2.68-2.29-5.82-3.82-8.98-5.26-10.21-4.66-20.84-8.14-31.73-10.82-4.86-1.2-9.82-1.88-14.85-1.3-1.55.18-3.04.57-4.33,1.69M4.23,237.64c.73,1.1,1,1.32,3.45,2.51,10.4,5.04,21.51,7.8,32.76,10.11,10.86,2.23,21.88,2.33,32.9,2.23,2.66-.02,5.36-.07,7.98-.69.89-.21,2.1-.33,1.94-1.58-.16-1.18-1.33-.98-2.18-.96-5.88.13-11.76.33-17.65.29-9.09-.06-18.06-.97-26.94-2.89-10.34-2.24-20.44-5.34-30.44-8.76-.54-.18-1.08-.45-1.81-.27m86.16-104.79c-.21-.95-1.25-1.44-2.23-1.91-4.42-2.13-9-3.88-13.62-5.53-9.82-3.51-19.9-5.8-30.23-7.23-6.44-.89-12.69-.34-18.97.87-.25.05-.61-.05-.67.29-.07.42.35.52.62.55.88.1,1.77.2,2.66.19,3.26-.04,6.56-.24,9.75.35,7.7,1.44,15.46,2.63,23.06,4.6,8.04,2.08,15.99,4.35,23.57,7.8,1.33.61,2.52,1.53,4,1.8,1.16.21,2.07-.42,2.05-1.78m-18.11,110.97c1.95-.05,4.94.19,7.92-.17,1.67-.21,2.54-.96,2.33-1.87-.33-1.41-1.57-1.29-2.61-1.28-2.05.02-4.1.21-6.14.26-11.95.31-23.77-.85-35.5-3.09-7.72-1.48-15.38-3.12-22.71-6.05-4.14-1.65-8.3-3.26-12.55-4.62-.38-.12-.82-.39-1.1.03-.31.47.06.87.42,1.13.5.37,1.03.71,1.59.98,6.26,3.05,12.6,5.95,19.29,7.91,15.67,4.61,31.68,6.92,49.07,6.77M23.33,125.37c-1.92.3-3.91-.05-5.83.4-.36.08-.82.1-.8.49.02.35.48.41.86.43.89.05,1.77.16,2.66.25,5,.51,10.01,1.01,15.01,1.53,4.65.49,9.24,1.3,13.83,2.16,6.17,1.16,12.31,2.44,18.29,4.37,4.29,1.38,8.27,3.51,12.48,5.09.67.25,1.32.53,2.06.51.61-.02,1.13-.16,1.41-.8.29-.65,0-1.16-.43-1.55-.56-.5-1.16-.98-1.81-1.35-6.1-3.52-12.63-5.95-19.44-7.67-12.57-3.19-25.38-4.04-38.29-3.86M7.14,247.95c.28.26.44.48.66.61.77.45,1.53.9,2.33,1.29,8.35,4.14,17.16,6.93,26.22,9,12.77,2.92,25.68,4.6,38.8,4.4,4.29-.07,8.54-.44,12.62-1.9.58-.21,1.15-.48,1.71-.75.48-.24.76-.63.63-1.19-.13-.6-.6-.73-1.13-.69-.58.04-1.15.1-1.72.19-5.51.84-11.04,1.45-16.62,1.34-5.52-.1-11.02-.43-16.51-1.17-9.11-1.23-18.09-3.07-26.94-5.5-5.58-1.53-11.05-3.48-16.57-5.2-1.07-.33-2.15-.83-3.48-.43m51.35,26.42c10.93,0,21.3-1.02,31.61-2.72.81-.13,1.68-.34,1.74-1.35.07-1.07-.77-1.41-1.63-1.62-.39-.09-.79-.16-1.19-.18-2.05-.07-4.1-.04-6.14.18-9.36.99-18.72,1.92-28.15,1.55-14.94-.59-29.23-3.79-42.62-10.59-1.72-.87-3.48-1.61-5.38-1.99-.79-.16-1.59-.25-2.38,0-.37.12-.86.2-.88.69-.02.49.42.64.8.77,2.09.71,3.91,1.93,5.73,3.14,2.91,1.93,5.96,3.58,9.23,4.83,12.8,4.89,26.03,7.43,39.27,7.3m14.13,41.31c11.27.31,21.59-.41,31.89-1.35,1.24-.11,2.46-.4,3.68-.64.56-.11,1-.42,1-1.08,0-.66-.48-.96-1-1.09-.64-.16-1.32-.24-1.98-.27-2.95-.11-5.88.17-8.82.32-12.7.66-25.4,1.15-38.1.15-8.87-.7-17.6-2.35-26.09-4.97-6.41-1.97-12.81-3.84-19.49-4.56-2.79-.3-5.57-.83-8.39-.58-.47.04-1.25-.03-1.25.68,0,.59.7.55,1.17.66,5.74,1.32,11.48,2.6,17.2,3.96,4.26,1.01,8.23,2.93,12.46,4.03,12.66,3.3,25.51,5.14,37.72,4.74m.07,9.47c12.42.04,23.09-.72,33.75-1.66,1.64-.15,3.28-.34,4.91-.56.56-.08,1.23-.26,1.28-.97.05-.76-.64-.92-1.2-1.02-.96-.17-1.94-.34-2.91-.32-4.28.11-8.55.3-12.83.42-7.13.21-14.26.42-21.39.56-9.06.17-18.08-.13-27.04-1.74-10.22-1.83-20.06-4.95-29.91-8.11-3.32-1.07-6.7-1.86-10.21-1.92-.54,0-1.17,0-1.26.7-.1.72.6.65,1.03.79,2.97.95,5.97,1.81,8.92,2.83,6.69,2.32,13.28,4.94,20.16,6.71,12.6,3.23,25.39,4.78,36.7,4.29m-.11-40.02c3.75.07,8.56-.15,13.35-.57,2.83-.25,5.66-.66,8.49-.99.85-.1,1.47-.5,1.56-1.35.09-.84-.57-1.24-1.27-1.51-.29-.11-.6-.18-.91-.21-1.37-.16-2.75-.29-4.13-.22-4.04.23-8.08.57-12.13.66-7.89.18-15.76-.01-23.63-.63-7.21-.56-14.31-1.66-21.32-3.4-6.53-1.62-12.84-3.96-19.2-6.14-1.68-.58-3.37-1.2-5.2-1.05-.48.04-1.07.1-1.19.66-.16.7.53.69.94.88.28.13.59.21.85.38,3.09,1.89,6.36,3.36,9.71,4.72,10.43,4.24,21.31,6.68,32.46,7.91,6.82.75,13.69.83,21.61.86M7.46,323.16c2.66-.24,5.06.31,7.46.77,6.84,1.3,13.49,3.34,20.17,5.23,14.92,4.22,30.03,6.87,45.6,6.03,3.42-.19,6.84-.51,10.24-.87,7.14-.76,14.17-2.17,21.18-3.66.83-.17,1.68-.31,2.45-.63.55-.23,1.11-.66,1-1.43-.12-.81-.81-.88-1.41-.97-.48-.07-.98-.05-1.47,0-6.78.7-13.52,1.69-20.25,2.78-8.25,1.34-16.5,2.21-24.87,1.49-6.27-.54-12.49-1.39-18.63-2.7-8.36-1.79-16.56-4.25-24.92-6.05-4.44-.96-8.89-1.89-13.48-1.69-1.21.05-2.43.14-3.06,1.7m73.1-27.5c3.79.07,8.19-.23,12.59-.57,3.02-.24,6.05-.31,9.07-.56.9-.07,2.32.02,2.34-1.18.02-1.13-1.37-1.04-2.24-1.17-2.43-.37-4.89-.45-7.33-.45-17.36.01-34.68-.63-51.92-2.79-8.92-1.12-17.7-2.76-25.94-6.58-2.26-1.05-4.6-1.97-7.09-2.35-1.85-.28-3.73-.44-5.56.18-.31.11-.75.22-.71.68.04.41.4.57.75.67.26.07.52.14.78.16,2.86.18,5.47,1.16,8.02,2.38,4.78,2.29,9.53,4.71,14.71,5.99,8.32,2.05,16.78,3.29,25.32,4.03,8.84.77,17.68,1.55,27.19,1.55m1.84,7.38c9.78.02,17.27-.13,24.75-.53.93-.05,1.86-.14,2.64-.78.51-.41.5-.77,0-1.18-.85-.7-1.86-.8-2.89-.82-5.03-.07-10.07-.13-15.1-.21-6.73-.1-13.46.24-20.19.39-8.02.17-16.04.04-24.06-.39-8.15-.44-16.08-1.96-23.76-4.73-4.19-1.51-8.29-3.28-12.58-4.49-2.07-.59-4.16-1.06-6.31-.46-.53.15-1.36.19-1.35.87.01.72.84.69,1.39.74,1.38.12,2.76.25,4.05.78,2.18.9,4.34,1.85,6.5,2.8,3.87,1.71,7.77,3.35,11.8,4.65,8.1,2.59,16.48,3.32,24.91,3.62,10.84.39,21.67-.09,30.2-.26m-10.23,55.24c6.09.34,15.12-1.2,24.14-3.1,10.33-2.18,20.34-5.34,30.08-9.38.74-.31,1.47-.65,2.06-1.21.35-.33.83-.65.6-1.23-.21-.51-.73-.43-1.16-.45-.72-.03-1.42.06-2.11.26-7.25,2.06-14.49,4.13-21.74,6.18-8.81,2.48-17.7,4.65-26.89,5.05-15.57.69-30.88-1.23-46.01-4.84-6.85-1.64-13.53-3.91-20.32-5.8-1.34-.37-2.69-.64-4.08-.69-.47-.02-1.08.03-1.16.65-.08.55.46.71.86.87,4.31,1.71,8.54,3.62,12.92,5.14,16.08,5.57,32.68,8.02,52.8,8.55m-2.85-12.31c5.75-.36,11.69-.67,17.52-1.73,13.03-2.37,25.84-5.72,38.66-9.03.64-.17,1.25-.47,1.83-.79.48-.26.89-.71.76-1.29-.11-.52-.6-.73-1.11-.85-.75-.18-1.5-.19-2.25-.06-9.54,1.6-19.06,3.3-28.44,5.66-7.63,1.92-15.28,3.54-23.14,4.07-7.87.53-15.56-.75-23.18-2.55-11.62-2.74-23.02-6.43-34.91-7.98-2.84-.37-5.67-.56-8.53-.37-.66.04-1.55.1-1.59.91-.04.85.85.84,1.5.94,1.8.3,3.61.59,5.4.93,11.7,2.24,23.11,5.66,34.63,8.62,7.44,1.91,14.97,3.3,22.84,3.53m-19.06-242.4c1.54-1.01,2.86-2.27,4.1-3.62,5.65-6.18,11.06-12.55,15.62-19.6,1.04-1.6,1-1.55,2.41-.35,1.55,1.32,3.15,2.6,4.81,3.8,4.11,2.96,8.77,4.93,13.29,7.11,2.9,1.4,6.12,2.08,9.37,1.62,6.47-.92,11.27-4.35,14.42-10.08,1.27-2.3,2.56-4.6,4.59-6.36.85-.74,1.72-1.42,2.85-1.66,1.67-.36,4.08.86,4.11,2.15.04,1.69.16,3.4-.15,5.07-.6,3.25-1.25,6.5-1.88,9.74-.96.18-1.92.48-2.89.51-2.68.09-3.79,1.6-4.25,4.07-1.38,7.31-2.48,14.66-3.7,21.99-1.11,6.63-2.08,13.28-2.89,19.96-.11.93-.49,1.13-1.34.76-1.5-.64-3.09-.81-4.7-.87-2.72-.11-5.28.79-7.9,1.24-5.42.93-10.57,2.85-15.8,4.47-4.5,1.39-9.12,2.78-13.51-.46-.14-.1-.33-.12-.5-.19-2.63-1.12-5.38-1.89-8.06-2.84-7.73-2.73-15.71-4.3-23.84-5.16-4.65-.49-9.29-1.04-13.94-1.53-2.75-.29-5.47-.74-8.17-1.34-.51-.11-1.07-.15-1.27.4-.18.51.38.79.74.98.86.46,1.75.89,2.67,1.22,6.97,2.52,14.31,3.32,21.57,4.36,11.05,1.58,21.72,4.38,31.92,8.94.78.35,1.57.63,2.45.57,2.67-.19,5.34-.31,7.94-1,3.92-1.03,7.73-2.45,11.63-3.55,6.08-1.72,12.28-2.53,18.62-1.91.8.08.99.41.94,1.09-.11,1.65-.25,3.29-.32,4.93-.05,1.13-.58,1.57-1.64,1.23-3.63-1.17-7.21-.7-10.79.24-6.71,1.76-12.99,4.66-19.37,7.29-3.87,1.6-7.74,3.17-11.85,4.12-3.78.88-7.47.92-11.22-.15-3.38-.97-6.8-1.81-10.23-2.58-8.86-2-17.74-3.96-26.62-5.89-3.66-.8-7.36-1.4-11.14-1.1-.51.04-1.2.02-1.23.74-.03.71.7.59,1.11.69,1.6.38,3.24.61,4.83,1.04,14.45,3.89,28.98,7.5,43.49,11.16,2.74.69,5.51.92,8.35.58,6.91-.83,13.23-3.55,19.58-6.13,5.99-2.44,11.89-5.07,18.38-5.91,2.12-.27,4.14-1.03,6.32-1.02,1.33,0,1.65.45,1.51,1.63-.13,1.06-.23,2.13-.25,3.2-.02,1.11-.44,1.69-1.62,1.85-5.49.71-10.91,1.77-16.14,3.6-8.29,2.9-16.4,6.24-24.55,9.5-3.87,1.55-7.48,1.76-11.48.11-7.95-3.27-16-6.29-24.32-8.55-7.92-2.16-15.87-4.1-24.14-4.21-.8,0-1.6-.01-2.41.03-.43.02-.78.24-.81.73-.03.43.29.66.63.76,1.03.29,2.05.65,3.1.77,9.56,1.12,18.79,3.67,27.88,6.72,6.5,2.18,12.92,4.63,19.4,6.89,4.79,1.67,9.31,1.6,13.95-.08,7.79-2.82,15.6-5.6,23.36-8.49,4.99-1.86,10.23-2.75,15.33-4.2.82-.23,1.29.02,1.18,1-.18,1.55-.36,3.1-.45,4.65-.08,1.35-.61,2.05-2.05,2.22-2.78.33-5.56.77-8.32,1.27-8.91,1.62-17.04,5.38-25.19,9.12-3.68,1.69-7.33,3.46-11.23,4.62-1.9.57-3.56.17-5.13-1.05-4.01-3.1-8.34-5.62-13.24-7.06-6.33-1.85-12.67-3.66-19.01-5.45-6.75-1.9-13.62-3.14-20.65-3.37-.67-.02-1.72-.31-1.83.53-.08.59.96.87,1.66,1.07,2.88.81,5.83,1.28,8.73,1.99,9.61,2.36,19.09,5.15,28.55,8.04,4.48,1.37,8.75,3.14,12.36,6.14,3.37,2.81,6.96,3.5,11.08,2.11,5.5-1.86,10.86-4.07,16.06-6.6,8.34-4.06,17.24-6.21,26.21-8.21.94-.21,1.35.14,1.29,1.1-.19,2.85-.38,5.69-.53,8.54-.04.76-.41,1.13-1.1,1.28-1.35.3-2.7.6-4.05.9-4.71,1.02-9.45,1.96-13.91,3.79-7.02,2.88-13.75,6.35-20.18,10.39-2.93,1.84-5.77,3.27-9.6,2.34-8.1-1.96-16.08-4.36-24.09-6.63-8.53-2.43-17.03-4.94-25.82-6.27-1.81-.27-3.62-.53-5.45-.36-.33.03-.74.01-.81.51-.08.53.26.71.66.85.21.07.43.11.65.16,10.02,2.38,19.79,5.65,29.72,8.33,8.77,2.37,17.43,5.15,26.4,6.75,2.59.46,4.91.22,7.21-1.04,5.93-3.25,11.87-6.5,17.96-9.48,6.72-3.29,13.95-4.85,21.02-6.99.82-.25,1.31.02,1.26.96-.09,2.09-.19,4.18-.27,6.28-.03.72-.35,1.18-1.05,1.35-1.17.29-2.33.6-3.51.85-6.08,1.28-12.04,2.91-17.6,5.77-4.05,2.08-7.95,4.43-11.59,7.14-2.35,1.75-4.82,2.25-7.66,1.93-4.48-.5-8.92-1.24-13.31-2.22-12.49-2.79-24.74-6.47-37.11-9.69-3.83-1-7.65-2.13-11.67-2.12-.49,0-1.2-.09-1.27.43-.08.57.68.57,1.11.72,3.6,1.19,7.21,2.32,10.8,3.52,9.52,3.18,19.14,5.99,28.93,8.18,8,1.79,16.13,2.88,24.26,3.85,2.68.32,5.27.08,7.78-1.27,6.23-3.37,12.44-6.79,18.95-9.62,3.85-1.67,7.88-2.84,11.79-4.33.57-.22,1.28-.4,1.36.45.31,3.01,1.51,5.66,3.15,8.15.39.58.2,1.02-.52,1.15-.48.09-.96.2-1.45.26-3.09.4-6.17.84-9.22,1.52-7.76,1.73-14.88,5.17-22.15,8.19-2.49,1.03-4.98,1.65-7.66,1.48-5.16-.34-10.3-.9-15.41-1.67-10.58-1.6-21.02-3.91-31.34-6.73-5.32-1.45-10.52-3.41-16.06-3.97-.76-.08-1.92-.55-2.15.34-.24.93.98,1.22,1.73,1.48,9.07,3.21,18.11,6.54,27.53,8.63,6.61,1.47,13.17,3.14,19.92,3.9,4.87.54,9.75,1.02,14.63,1.4,4,.31,7.84-.08,11.64-1.67,4.6-1.92,9.18-3.92,13.92-5.5,5.97-1.99,12.12-3.3,18.12-5.16.8-.25,1.17.21,1.55.7,1.24,1.57,2.52,3.11,3.98,4.5.4.38,1.04.72.89,1.39-.16.73-.93.61-1.45.72-4.8,1.03-9.52,2.35-14.16,3.92-6.67,2.25-13.33,4.55-19.94,6.97-3.17,1.16-6.38,1.23-9.63.88-8.24-.88-16.48-1.71-24.66-3.08-7.86-1.32-15.79-2.28-23.51-4.34-4.82-1.28-9.51-3.04-14.39-4.12-2.7-.6-5.41-1.13-8.15-1.42-.38-.04-.94-.25-1.09.43-.11.51.14.86.53,1.13.52.36,1.09.58,1.7.76,3.16.94,6.37,1.74,9.46,2.88,12.96,4.77,26.4,7.39,40.03,9.17,5.3.69,10.61,1.34,15.94,1.72,4.65.33,9.34.7,13.91-.84,3.51-1.18,7.09-2.12,10.57-3.37,8.86-3.19,18.09-5.14,26.99-8.16.79-.27,1.54-.3,2.24.36,3.57,3.36,7.85,5.67,12.01,8.17,5.92,3.56,11.92,6.97,18.01,10.22.54.28.97.65.92,1.34-.24,3.4.19,6.76.48,10.13.65,7.69,1.4,15.36,3.81,22.73,2.59,7.92,5.2,15.82,10.21,22.68,3.08,4.21,6.23,8.36,10,11.97,4.79,4.59,9.53,9.24,14.69,13.42,4.87,3.95,9.64,8.04,14.64,11.81,8.76,6.6,18.18,12.19,27.74,17.56.89.5,1.28.26,1.56-.57.45-1.31.97-2.59,1.32-3.92,1.9-7.14,3.82-14.28,5.62-21.45,2.31-9.16,3.78-18.49,5.35-27.8,1.15-6.81,2.14-13.64,2.97-20.49.44-3.67.79-7.35,1.18-11.02,1.14,1.48,2.15,3.1,3.66,4.24,5.09,3.82,10.57,6.72,17.04,7.43,6.17.68,11.98-.42,17.5-3.17,4.72-2.35,8.33-6,11.53-10.12,3.29-4.23,5.31-9.06,5.65-14.32.59-9.15-.22-18.23-2.45-27.17-1.41-5.67-3.36-11.16-5.07-16.74-2.78-9.08-5.84-18.05-9.37-26.87-2.34-5.85-4.06-11.89-4.7-18.2-.53-5.16-.62-10.34-.47-15.5.23-8.07-.66-16.04-1.78-23.99-1.15-8.12-3.85-15.86-6.87-23.44-4.49-11.27-11.81-20.47-21.41-27.87-5.57-4.29-11.46-8.07-17.95-10.78-10.66-4.46-21.86-5.65-33.31-5.03-3.26.18-6.35,1.1-8.99,3.09-2.52,1.91-5.09,3.85-5.58,7.34-.07.52-.48.8-.93,1.06-1.91,1.12-3.91,2.12-5.46,3.78-.28.3-.61.59-1.05.31-.4-.26-.38-.67-.29-1.08.56-2.63.63-5.3.45-7.97-.06-.95.25-1.44,1.09-1.86,2.36-1.17,4.65-2.51,6.56-4.33,4.25-4.05,5.61-9.12,4.67-14.79-1.33-8.01-5.65-14.31-11.89-19.25-7.77-6.15-16.29-11.06-25.56-14.62-3.2-1.23-6.33-2.66-9.67-3.52-5.23-1.34-10.45-2.59-15.87-2.93-4.72-.29-9.44-.69-14.13-.05-8.47,1.16-16.22,4.34-23.38,8.92-5.14,3.29-9.29,7.69-12.99,12.52-5.09,6.64-9.34,13.74-12.01,21.71-1.94,5.81-2.99,11.82-3.42,17.89-.35,4.83.74,9.47,3.15,13.72.52.93.49,1.6-.17,2.4-1.58,1.92-3.1,3.88-4.62,5.85-3.32,4.3-7.03,8.24-10.71,12.21-1.67,1.8-3.49,3.45-5.18,5.23-.81.85-1.83,1.61-1.91,2.95-.35.03-.72.01-1.06.09-.66.16-1.73-.02-1.8.79-.08.84.96.89,1.63,1.02,7.78,1.55,15.48,3.39,22.93,6.2,12.6,4.74,25.18,9.5,36.74,16.54.9.55,2.05,1.38,2.87.29.83-1.11-.23-2.09-1.05-2.83-4.22-3.84-9.1-6.68-14.23-9.11-4.87-2.31-9.83-4.39-14.97-6.08-7.58-2.49-15.12-5.06-23.06-6.21-1.28-.19-2.67.01-3.79-.88"/>
      <path class="cls-4" d="m251.93,266.68c-.39,3.67-.73,7.35-1.18,11.02-.83,6.85-1.82,13.68-2.97,20.49-1.57,9.31-3.05,18.64-5.35,27.8-1.8,7.17-3.72,14.31-5.62,21.45-.35,1.33-.88,2.62-1.32,3.92-.29.83-.67,1.07-1.56.57-9.56-5.37-18.98-10.96-27.74-17.56-5.01-3.77-9.77-7.86-14.64-11.81-5.16-4.19-9.9-8.83-14.69-13.42-3.76-3.61-6.92-7.76-10-11.97-5.01-6.85-7.62-14.76-10.21-22.68-2.41-7.38-3.17-15.05-3.81-22.73-.29-3.38-.72-6.74-.48-10.13.05-.69-.39-1.06-.92-1.34-6.1-3.25-12.1-6.66-18.01-10.22-4.16-2.5-8.44-4.81-12.01-8.16-.7-.65-1.45-.62-2.24-.36-8.91,3.01-18.13,4.96-26.99,8.16-3.48,1.25-7.06,2.2-10.57,3.38-4.57,1.54-9.27,1.17-13.91.84-5.33-.38-10.64-1.03-15.94-1.72-13.63-1.78-27.08-4.4-40.04-9.17-3.09-1.14-6.3-1.94-9.46-2.88-.61-.18-1.18-.4-1.7-.76-.38-.27-.64-.62-.53-1.13.15-.68.71-.47,1.09-.43,2.75.3,5.46.82,8.15,1.42,4.88,1.08,9.57,2.84,14.39,4.12,7.72,2.05,15.65,3.02,23.51,4.33,8.18,1.37,16.42,2.21,24.66,3.08,3.25.35,6.46.28,9.63-.88,6.61-2.42,13.27-4.72,19.94-6.97,4.64-1.57,9.36-2.89,14.16-3.92.52-.11,1.29,0,1.45-.72.15-.67-.49-1.01-.89-1.39-1.46-1.39-2.74-2.92-3.98-4.5-.38-.49-.75-.95-1.55-.7-6,1.86-12.15,3.18-18.12,5.16-4.74,1.58-9.32,3.58-13.92,5.5-3.8,1.59-7.64,1.99-11.64,1.67-4.88-.38-9.76-.86-14.63-1.4-6.75-.75-13.31-2.43-19.92-3.9-9.42-2.09-18.46-5.42-27.53-8.63-.74-.26-1.97-.55-1.73-1.48.23-.89,1.39-.41,2.15-.34,5.54.57,10.74,2.52,16.06,3.97,10.32,2.81,20.76,5.13,31.34,6.72,5.1.77,10.25,1.33,15.41,1.67,2.68.18,5.17-.44,7.66-1.48,7.27-3.02,14.4-6.46,22.16-8.19,3.05-.68,6.13-1.12,9.22-1.52.49-.06.96-.17,1.45-.26.72-.14.9-.57.52-1.15-1.64-2.49-2.83-5.13-3.15-8.15-.09-.85-.79-.67-1.36-.45-3.91,1.49-7.94,2.66-11.79,4.33-6.51,2.83-12.72,6.25-18.95,9.62-2.5,1.35-5.09,1.59-7.77,1.27-8.14-.97-16.26-2.06-24.26-3.85-9.79-2.19-19.41-5.01-28.93-8.18-3.59-1.2-7.21-2.33-10.8-3.52-.43-.14-1.19-.15-1.11-.72.07-.53.79-.43,1.27-.43,4.02,0,7.84,1.12,11.67,2.12,12.37,3.22,24.63,6.91,37.12,9.69,4.39.98,8.83,1.71,13.31,2.22,2.84.32,5.31-.18,7.66-1.93,3.65-2.71,7.54-5.06,11.59-7.14,5.56-2.85,11.52-4.49,17.6-5.77,1.18-.25,2.34-.56,3.51-.85.7-.17,1.02-.63,1.05-1.35.08-2.09.17-4.19.27-6.28.04-.94-.44-1.21-1.26-.96-7.07,2.14-14.3,3.7-21.02,6.99-6.09,2.98-12.02,6.23-17.95,9.48-2.3,1.26-4.63,1.5-7.21,1.04-8.97-1.6-17.63-4.38-26.4-6.74-9.93-2.68-19.7-5.95-29.72-8.33-.22-.05-.44-.09-.65-.16-.4-.13-.74-.32-.66-.85.07-.5.48-.48.81-.51,1.84-.16,3.65.09,5.46.36,8.79,1.34,17.29,3.85,25.82,6.27,8.01,2.28,15.98,4.68,24.09,6.64,3.83.93,6.68-.51,9.6-2.34,6.44-4.03,13.17-7.51,20.18-10.39,4.46-1.83,9.21-2.77,13.91-3.79,1.35-.29,2.7-.6,4.05-.9.69-.15,1.06-.52,1.1-1.28.15-2.85.34-5.69.53-8.54.06-.96-.35-1.31-1.29-1.1-8.97,1.99-17.87,4.15-26.21,8.21-5.21,2.53-10.57,4.74-16.06,6.6-4.11,1.39-7.71.7-11.08-2.11-3.61-3-7.88-4.78-12.36-6.14-9.46-2.89-18.95-5.68-28.55-8.04-2.9-.71-5.85-1.18-8.73-1.99-.71-.2-1.74-.48-1.66-1.07.11-.84,1.16-.55,1.83-.53,7.03.23,13.89,1.48,20.65,3.37,6.35,1.78,12.68,3.59,19.01,5.45,4.89,1.43,9.23,3.96,13.24,7.06,1.57,1.22,3.23,1.62,5.13,1.05,3.9-1.16,7.55-2.94,11.24-4.62,8.15-3.73,16.28-7.5,25.19-9.12,2.76-.5,5.54-.94,8.32-1.27,1.44-.17,1.97-.87,2.05-2.22.09-1.55.27-3.11.45-4.65.12-.98-.36-1.23-1.18-1-5.1,1.44-10.34,2.34-15.33,4.2-7.77,2.89-15.57,5.67-23.36,8.49-4.64,1.68-9.16,1.75-13.95.08-6.48-2.26-12.89-4.71-19.4-6.89-9.09-3.05-18.31-5.6-27.88-6.72-1.05-.12-2.08-.49-3.1-.77-.35-.1-.66-.33-.63-.76.03-.49.38-.71.81-.73.8-.04,1.6-.04,2.4-.03,8.27.1,16.22,2.05,24.14,4.21,8.32,2.26,16.38,5.28,24.32,8.55,4,1.65,7.6,1.44,11.48-.11,8.15-3.25,16.27-6.6,24.55-9.5,5.24-1.83,10.65-2.89,16.14-3.6,1.18-.15,1.6-.73,1.62-1.85.02-1.07.12-2.14.25-3.2.15-1.19-.18-1.63-1.5-1.63-2.18,0-4.2.75-6.32,1.02-6.49.83-12.39,3.47-18.38,5.91-6.35,2.58-12.67,5.31-19.58,6.14-2.83.34-5.6.12-8.35-.58-14.51-3.67-29.03-7.27-43.49-11.16-1.59-.43-3.23-.65-4.83-1.04-.41-.1-1.14.02-1.11-.69.03-.72.72-.7,1.23-.74,3.78-.3,7.47.3,11.14,1.1,8.88,1.93,17.75,3.89,26.62,5.89,3.43.77,6.85,1.61,10.23,2.58,3.75,1.08,7.44,1.04,11.22.15,4.1-.96,7.98-2.53,11.85-4.12,6.38-2.63,12.65-5.54,19.37-7.29,3.59-.94,7.16-1.41,10.79-.24,1.06.34,1.59-.1,1.64-1.23.07-1.65.21-3.29.32-4.93.05-.68-.14-1.01-.94-1.09-6.34-.62-12.54.19-18.62,1.91-3.9,1.1-7.7,2.52-11.62,3.55-2.6.68-5.28.81-7.95,1-.88.06-1.66-.22-2.45-.57-10.2-4.56-20.88-7.35-31.93-8.93-7.26-1.04-14.6-1.84-21.57-4.36-.92-.33-1.81-.76-2.67-1.22-.35-.19-.92-.46-.74-.98.19-.56.76-.51,1.27-.4,2.7.59,5.42,1.05,8.17,1.34,4.65.49,9.29,1.03,13.94,1.53,8.13.86,16.11,2.43,23.84,5.16,2.69.95,5.44,1.71,8.07,2.84.16.07.36.09.5.19,4.4,3.24,9.01,1.86,13.51.46,5.23-1.62,10.38-3.53,15.8-4.47,2.62-.45,5.18-1.35,7.9-1.24,1.62.06,3.21.23,4.7.87.85.36,1.23.17,1.34-.76.81-6.67,1.79-13.33,2.89-19.96,1.22-7.33,2.32-14.68,3.7-21.99.46-2.46,1.57-3.98,4.25-4.07.97-.03,1.92-.33,2.89-.51.53-.02,1.1.08,1.59-.07,2.85-.84,5.81-.41,8.7-.77,2.46-.31,4.95.23,7.38.59,4.75.69,9.47,1.56,13.99,3.35,1.39.55,1.77,1.31,1.72,2.54-.11,2.7.1,5.4-.22,8.12-.35,2.94-.12,5.93-.24,8.91-.14,3.72-.35,7.45-.41,11.18-.05,2.66-.17,5.34-.31,8.01-.38,7.16-.61,14.32-.3,21.5.29,6.85.61,13.69,1.14,20.53.22,2.77.15,2.77,2.93,2.58.13,0,.27-.01.4-.03,6.02-.75,11.97-1.89,17.85-3.39,4.28-1.09,8.61-2.05,12.97-2.73,6.18-.97,12.31-2.27,18.5-3.16,1.12-.16,2.52-1.04,3.54.11,1.75,1.97,4.09,2.76,6.46,3.59,4.56,1.6,8.9,3.67,12.88,6.4,5.27,3.62,9.79,7.98,12.55,13.92,2.84,6.13,3.98,12.62,4.25,19.3.15,3.61-.19,7.21-.49,10.8-.49,5.81-1.2,11.6-2.03,17.36-.54,3.76-.92,7.52-.48,11.31.65,5.6,2.95,10.59,5.8,15.36"/>
      <path class="cls-5" d="m150.22,40.55c-.06-1.41-.07-2.76-.2-4.08-.07-.7.16-1.88-.67-1.93-.88-.06-.74,1.13-.88,1.82-.75,3.85-1.32,7.74-2.35,11.52-.5,1.85-1.06,3.68-1.64,5.51-.25.8-.88,1.32-1.7,1.21-.77-.1-1.13-.74-1.24-1.54-.16-1.16-.15-2.31-.04-3.46.5-5.06,1-10.13.09-15.19-.14-.76.17-2.05-.89-2.07-.97-.02-.96,1.23-1.07,2.03-.87,6.45-1.91,12.88-1.88,19.41,0,.7-.18,1.35-.89,1.43-.63.07-.98-.52-1.13-1.13-.19-.73-.41-1.46-.55-2.2-1.18-6.58-2.33-13.16-3.5-19.74-.08-.44-.18-.88-.32-1.29-.21-.59-.44-1.26-1.2-1.26-.77,0-1.01.67-1.15,1.28-.17.73-.27,1.49-.35,2.24-.28,2.71-.08,5.43-.04,8.15.17,10.03-.21,20.06-.2,30.1,0,6.26-.03,12.48-2.11,18.49-.39,1.12.01,1.45,1.17,1.37,2.22-.17,4.44-.4,6.65-.39,5.4.02,10.69.98,15.95,2.13,1.63.36,1.7.28,1.94-1.35.63-4.34,1.78-8.54,3.57-12.56,1.84-4.14,4.99-7.23,8.12-10.35,1.29-1.29,2.52-2.64,3.77-3.98.24-.26.49-.57.2-.94-.27-.34-.62-.29-.96-.11-.27.15-.53.32-.81.47-2.16,1.17-4.33,2.31-6.84,2.53-2.17.19-3.61-1.02-3.49-3.14.13-2.22.18-4.44.57-6.65.87-4.92,1.65-9.85,1.51-14.87-.01-.4.18-1.01-.49-1.04-.51-.02-.53.52-.63.89-.54,2.07-.94,4.18-1.62,6.21-.75,2.23-1.74,4.38-2.66,6.56-.26.61-.72,1.01-1.47.93-.82-.09-.91-.71-1.05-1.33-.31-1.41-.32-2.83-.22-4.26.24-3.16.47-6.31.69-9.4m19.08,103.36c.22,5.82-.22,11.47-.9,17.07-.62,5.08-1.92,10.03-4.16,14.68-.19.4-.47.8-.13,1.24.33.42.78.32,1.23.24,1.56-.3,3.14-.54,4.69-.88,4.06-.91,8.09-1.9,12.15-2.79,4.92-1.07,9.91-1.82,14.87-2.68,4.57-.8,9.12-1.69,13.71-2.38,1.39-.21,1.64-.57.78-1.66-2.81-3.56-3.7-7.76-4-12.1-.45-6.42,1.65-12.2,4.92-17.58,2.91-4.79,6.7-8.93,10.24-13.25,1.88-2.3,3.39-4.81,3.47-7.91.06-2.09-.38-4.03-2.11-5.37-1.44-1.11-3.09-1.9-4.79-2.62-3.74-1.58-6.34-4.18-7.24-8.27-.44-2.01-.68-4.03-.73-6.09-.07-3.25-.25-6.47-.95-9.67-1.36-6.24-5.87-9.46-11.11-12.09-2.6-1.31-5.5-1.8-8.11-3.02-.81-.38-1.27-.29-1.89.16-3.28,2.38-6.45,4.91-9.09,7.99-2.5,2.91-4.13,6.36-4.91,10.1-.51,2.42-.52,4.94-.69,7.43-.24,3.46-.61,4.84-4.79,5.45-2.34.34-4.65.82-6.48,2.5-.46.42-.92.83-1.39,1.24-.42.37-.83.27-1.18-.08-.32-.33-.71-.6-.46-1.24,1.12-2.88,2.67-5.21,6.15-5.45,1.1-.08,2.19-.43,3.29-.46,1.17-.03,1.58-.6,1.66-1.63.1-1.33.26-2.66.3-3.99.11-4.03,1.14-7.75,2.99-11.36,2.66-5.2,4.72-10.65,5.49-16.51.15-1.15-.1-1.45-1.19-1.11-1.75.55-3.52.98-5.32,1.33-.75.15-1.33.52-1.75,1.13-2.41,3.51-5.61,6.3-8.54,9.35-1.23,1.28-2.34,2.65-3.21,4.22-2.43,4.39-3.22,9.21-3.69,14.1-.09.91-.71,1.94-.09,2.73.86,1.1.79,2.34.8,3.51.04,4.04-.34,8.07-.42,12.11-.1,5.12-.53,10.23-.38,15.35.03.93.4,1.47,1.2,1.89,1.78.95,3.68,1.57,5.58,2.2,4.99,1.67,6.05,3.09,6.16,8.29.04,2.01,0,4.01,0,5.86m82.62,122.78c-2.85-4.77-5.15-9.76-5.8-15.36-.44-3.79-.06-7.54.48-11.31.83-5.77,1.54-11.55,2.03-17.36.3-3.6.64-7.19.49-10.8-.27-6.68-1.41-13.17-4.25-19.3-2.76-5.94-7.27-10.3-12.55-13.92-3.97-2.73-8.32-4.81-12.88-6.4-2.36-.83-4.7-1.62-6.46-3.59-1.03-1.15-2.43-.27-3.54-.11-6.19.89-12.32,2.19-18.5,3.16-4.36.68-8.68,1.64-12.97,2.73-5.88,1.5-11.82,2.64-17.85,3.39-.13.02-.27.02-.4.03-2.78.19-2.71.19-2.93-2.58-.53-6.83-.85-13.68-1.14-20.53-.3-7.18-.07-14.33.3-21.5.14-2.67.26-5.35.31-8.01.07-3.73.27-7.46.41-11.18.12-2.97-.11-5.97.24-8.91.32-2.72.11-5.42.22-8.12.05-1.23-.34-1.99-1.72-2.54-4.52-1.8-9.24-2.67-13.99-3.35-2.43-.35-4.92-.9-7.38-.59-2.9.37-5.85-.07-8.7.77-.49.14-1.06.05-1.59.07.63-3.25,1.28-6.49,1.88-9.74.31-1.68.19-3.38.15-5.07-.03-1.29-2.44-2.51-4.11-2.15-1.13.24-2,.92-2.85,1.66-2.03,1.76-3.32,4.06-4.59,6.36-3.16,5.73-7.96,9.15-14.43,10.08-3.25.46-6.47-.22-9.37-1.62-4.52-2.18-9.18-4.14-13.29-7.11-1.66-1.2-3.26-2.47-4.81-3.8-1.41-1.2-1.37-1.25-2.41.35-4.55,7.05-9.97,13.42-15.62,19.6-1.24,1.35-2.56,2.61-4.1,3.62-1.37.68-2.79.58-4.21.19.08-1.34,1.1-2.1,1.91-2.95,1.69-1.77,3.51-3.43,5.18-5.23,3.68-3.97,7.39-7.91,10.71-12.21,1.52-1.96,3.04-3.93,4.62-5.85.66-.8.69-1.48.17-2.4-2.41-4.25-3.5-8.89-3.15-13.72.43-6.08,1.48-12.08,3.42-17.89,2.67-7.97,6.92-15.07,12.01-21.71,3.7-4.83,7.85-9.23,12.99-12.52,7.16-4.58,14.91-7.76,23.38-8.92,4.7-.64,9.42-.25,14.13.05,5.42.34,10.65,1.59,15.88,2.93,3.34.86,6.47,2.29,9.67,3.52,9.27,3.56,17.79,8.47,25.56,14.62,6.24,4.94,10.56,11.24,11.89,19.25.94,5.67-.42,10.74-4.67,14.79-1.91,1.82-4.2,3.17-6.56,4.33-.84.42-1.16.9-1.09,1.86.18,2.67.11,5.34-.45,7.97-.09.41-.11.82.29,1.08.44.28.77-.01,1.05-.31,1.54-1.66,3.55-2.66,5.46-3.78.45-.26.86-.54.93-1.06.49-3.49,3.06-5.43,5.58-7.34,2.63-1.99,5.72-2.91,8.98-3.09,11.45-.63,22.65.57,33.31,5.03,6.49,2.71,12.38,6.49,17.95,10.78,9.6,7.39,16.92,16.6,21.41,27.87,3.02,7.58,5.72,15.32,6.87,23.44,1.12,7.94,2.01,15.92,1.78,23.99-.15,5.17-.06,10.34.47,15.5.64,6.31,2.36,12.35,4.7,18.2,3.53,8.82,6.59,17.79,9.37,26.87,1.71,5.57,3.66,11.07,5.07,16.74,2.22,8.94,3.04,18.02,2.45,27.17-.34,5.26-2.36,10.09-5.65,14.33-3.2,4.12-6.8,7.76-11.52,10.12-5.52,2.75-11.33,3.85-17.5,3.17-6.47-.71-11.96-3.61-17.04-7.43-1.51-1.14-2.52-2.75-3.66-4.24"/>
      <path class="cls-4" d="m69.32,345.96c-7.87-.23-15.4-1.62-22.84-3.53-11.52-2.97-22.93-6.39-34.63-8.62-1.79-.34-3.6-.63-5.4-.93-.65-.11-1.53-.1-1.5-.94.04-.81.93-.86,1.59-.91,2.86-.19,5.69,0,8.53.37,11.89,1.56,23.29,5.24,34.91,7.98,7.61,1.8,15.3,3.08,23.18,2.55,7.86-.52,15.52-2.15,23.14-4.07,9.38-2.36,18.91-4.06,28.44-5.66.76-.13,1.5-.12,2.26.06.51.12.99.33,1.1.85.13.59-.28,1.03-.76,1.3-.58.32-1.2.62-1.83.79-12.82,3.31-25.63,6.66-38.66,9.03-5.83,1.06-11.77,1.37-17.52,1.73"/>
      <path class="cls-4" d="m72.16,358.27c-20.12-.53-36.73-2.98-52.8-8.55-4.38-1.52-8.61-3.43-12.92-5.14-.41-.16-.94-.32-.86-.87.09-.62.69-.67,1.16-.65,1.39.05,2.74.32,4.08.69,6.79,1.89,13.46,4.16,20.32,5.8,15.12,3.61,30.44,5.53,46.01,4.84,9.19-.41,18.07-2.57,26.89-5.05,7.25-2.04,14.49-4.11,21.74-6.18.69-.2,1.4-.3,2.11-.26.43.02.96-.06,1.16.45.23.58-.25.9-.6,1.23-.59.56-1.32.9-2.06,1.21-9.74,4.05-19.75,7.2-30.08,9.39-9.02,1.9-18.04,3.44-24.14,3.1"/>
      <path class="cls-4" d="m82.4,303.04c-8.54.17-19.37.65-30.2.26-8.43-.3-16.8-1.03-24.91-3.62-4.04-1.29-7.93-2.94-11.8-4.64-2.16-.95-4.32-1.89-6.5-2.8-1.29-.53-2.67-.66-4.05-.78-.54-.05-1.38-.02-1.39-.74-.01-.68.82-.72,1.35-.87,2.15-.61,4.24-.13,6.31.46,4.29,1.22,8.39,2.98,12.58,4.49,7.68,2.77,15.61,4.3,23.76,4.73,8.02.43,16.04.56,24.06.39,6.73-.14,13.45-.49,20.19-.39,5.03.08,10.07.13,15.1.21,1.03.01,2.05.12,2.9.82.49.41.5.76,0,1.18-.78.64-1.71.73-2.64.78-7.48.4-14.96.55-24.75.53"/>
      <path class="cls-4" d="m80.56,295.66c-9.51,0-18.35-.78-27.19-1.55-8.54-.74-17-1.97-25.32-4.03-5.19-1.28-9.93-3.7-14.71-5.99-2.56-1.22-5.17-2.2-8.03-2.38-.26-.02-.53-.08-.78-.16-.35-.1-.71-.26-.75-.67-.04-.46.39-.57.7-.68,1.83-.62,3.7-.46,5.56-.18,2.49.38,4.83,1.3,7.09,2.35,8.24,3.82,17.01,5.46,25.94,6.58,17.24,2.16,34.56,2.8,51.92,2.79,2.45,0,4.91.08,7.33.45.87.13,2.26.04,2.24,1.17-.02,1.2-1.44,1.11-2.34,1.18-3.02.24-6.05.32-9.07.56-4.4.34-8.8.64-12.59.57"/>
      <path class="cls-4" d="m7.46,323.16c.63-1.57,1.86-1.65,3.06-1.7,4.59-.2,9.04.73,13.48,1.69,8.36,1.8,16.56,4.26,24.92,6.05,6.14,1.31,12.36,2.16,18.63,2.7,8.37.72,16.62-.15,24.87-1.49,6.72-1.09,13.47-2.08,20.24-2.78.49-.05.99-.07,1.47,0,.6.09,1.3.15,1.41.97.11.77-.45,1.2-1,1.43-.77.32-1.62.46-2.45.63-7.01,1.49-14.04,2.9-21.18,3.66-3.41.36-6.82.69-10.24.87-15.57.84-30.68-1.81-45.6-6.03-6.68-1.89-13.33-3.93-20.17-5.23-2.39-.45-4.8-1-7.46-.77"/>
      <path class="cls-4" d="m72.59,285.12c-7.92-.03-14.79-.11-21.61-.86-11.15-1.23-22.03-3.67-32.46-7.9-3.35-1.36-6.63-2.83-9.71-4.73-.26-.16-.57-.25-.85-.38-.41-.19-1.1-.18-.94-.88.13-.56.71-.62,1.19-.66,1.83-.14,3.51.47,5.2,1.05,6.35,2.19,12.66,4.53,19.2,6.14,7.01,1.74,14.11,2.83,21.32,3.4,7.87.61,15.75.81,23.63.63,4.04-.09,8.08-.44,12.13-.66,1.38-.08,2.76.06,4.13.22.31.04.62.11.9.22.69.27,1.35.66,1.27,1.51-.09.86-.71,1.26-1.56,1.35-2.83.32-5.65.74-8.49.99-4.79.42-9.6.63-13.35.57"/>
      <path class="cls-4" d="m72.69,325.15c-11.31.49-24.1-1.06-36.7-4.29-6.88-1.76-13.47-4.39-20.16-6.71-2.95-1.02-5.95-1.88-8.92-2.83-.43-.14-1.12-.06-1.03-.79.09-.69.73-.71,1.26-.7,3.51.07,6.9.86,10.21,1.92,9.85,3.16,19.69,6.29,29.91,8.11,8.96,1.6,17.98,1.91,27.04,1.74,7.13-.14,14.26-.35,21.39-.56,4.28-.12,8.55-.32,12.82-.42.97-.02,1.95.15,2.92.31.55.1,1.25.26,1.2,1.02-.05.71-.71.89-1.28.97-1.63.23-3.27.42-4.91.56-10.66.95-21.33,1.7-33.75,1.66"/>
      <path class="cls-4" d="m72.62,315.68c-12.2.41-25.05-1.44-37.72-4.74-4.23-1.1-8.21-3.02-12.47-4.03-5.72-1.36-11.47-2.65-17.2-3.96-.47-.11-1.17-.07-1.17-.66,0-.71.79-.64,1.25-.68,2.82-.25,5.6.28,8.39.58,6.68.72,13.08,2.59,19.49,4.56,8.49,2.62,17.22,4.27,26.09,4.97,12.7,1,25.4.51,38.1-.15,2.94-.15,5.87-.42,8.82-.32.66.02,1.33.11,1.98.27.52.13,1.01.43,1,1.09,0,.65-.44.97-1,1.08-1.22.24-2.44.53-3.68.64-10.3.95-20.62,1.67-31.89,1.35"/>
      <path class="cls-4" d="m58.49,274.37c-13.25.12-26.47-2.42-39.27-7.31-3.26-1.25-6.31-2.9-9.23-4.83-1.82-1.2-3.64-2.43-5.73-3.14-.38-.13-.83-.28-.8-.77.03-.49.51-.57.88-.69.79-.25,1.59-.15,2.38,0,1.9.38,3.66,1.11,5.38,1.99,13.39,6.8,27.68,10.01,42.62,10.59,9.43.37,18.79-.55,28.15-1.55,2.04-.22,4.09-.25,6.14-.18.4.01.8.08,1.19.18.87.21,1.7.56,1.63,1.62-.06,1.01-.93,1.22-1.74,1.35-10.31,1.69-20.68,2.71-31.61,2.72"/>
      <path class="cls-4" d="m46.05,103.74c1.43.39,2.84.5,4.21-.19,1.12.89,2.5.69,3.79.88,7.94,1.15,15.48,3.72,23.06,6.21,5.14,1.68,10.1,3.77,14.97,6.08,5.13,2.43,10.01,5.27,14.23,9.11.81.74,1.88,1.72,1.05,2.83-.81,1.09-1.96.26-2.86-.29-11.56-7.03-24.14-11.79-36.74-16.54-7.45-2.8-15.14-4.65-22.93-6.2-.67-.13-1.71-.18-1.63-1.02.07-.81,1.14-.63,1.8-.79.34-.08.71-.07,1.06-.09"/>
      <path class="cls-4" d="m7.14,247.95c1.32-.4,2.41.1,3.48.43,5.53,1.72,10.99,3.67,16.57,5.2,8.85,2.43,17.83,4.27,26.94,5.5,5.48.74,10.99,1.07,16.5,1.17,5.58.11,11.11-.5,16.62-1.34.57-.09,1.15-.15,1.72-.19.53-.04,1,.09,1.13.69.13.56-.15.96-.64,1.19-.56.27-1.12.54-1.71.75-4.08,1.46-8.33,1.83-12.62,1.9-13.12.21-26.03-1.48-38.8-4.4-9.06-2.07-17.87-4.86-26.22-9-.8-.39-1.56-.84-2.33-1.29-.21-.13-.38-.34-.66-.61"/>
      <path class="cls-4" d="m23.33,125.37c12.91-.18,25.72.67,38.29,3.86,6.81,1.73,13.34,4.16,19.44,7.67.65.37,1.25.85,1.81,1.35.43.39.72.9.43,1.55-.28.63-.8.78-1.41.8-.74.02-1.39-.26-2.06-.51-4.21-1.58-8.2-3.71-12.48-5.09-5.98-1.93-12.12-3.21-18.29-4.37-4.59-.86-9.18-1.68-13.83-2.17-5-.52-10-1.02-15.01-1.53-.89-.09-1.77-.2-2.66-.25-.38-.02-.84-.08-.86-.44-.03-.39.44-.41.8-.49,1.93-.45,3.92-.1,5.84-.4"/>
      <path class="cls-4" d="m72.28,243.82c-17.39.15-33.4-2.16-49.07-6.77-6.69-1.96-13.03-4.86-19.29-7.91-.56-.27-1.09-.61-1.59-.98-.36-.26-.73-.66-.42-1.13.28-.42.72-.15,1.1-.03,4.25,1.36,8.41,2.96,12.55,4.62,7.33,2.93,14.99,4.57,22.71,6.05,11.74,2.25,23.55,3.4,35.5,3.09,2.05-.05,4.1-.24,6.15-.26,1.03-.01,2.28-.13,2.61,1.28.21.91-.66,1.66-2.33,1.87-2.97.37-5.97.12-7.91.17"/>
      <path class="cls-4" d="m90.39,132.85c.02,1.36-.9,1.99-2.05,1.78-1.48-.27-2.67-1.2-4.01-1.8-7.58-3.45-15.54-5.72-23.57-7.8-7.6-1.97-15.36-3.15-23.06-4.6-3.19-.6-6.49-.39-9.75-.35-.89.01-1.78-.08-2.66-.18-.27-.03-.69-.12-.62-.55.06-.34.42-.24.67-.29,6.28-1.22,12.53-1.77,18.97-.87,10.33,1.43,20.42,3.72,30.23,7.23,4.62,1.65,9.2,3.4,13.62,5.53.98.47,2.03.96,2.23,1.91"/>
      <path class="cls-4" d="m4.23,237.64c.73-.18,1.26.08,1.8.27,10,3.42,20.1,6.51,30.44,8.76,8.88,1.93,17.85,2.84,26.94,2.89,5.89.04,11.77-.16,17.65-.29.85-.02,2.03-.22,2.18.96.17,1.25-1.05,1.37-1.93,1.58-2.62.62-5.32.67-7.98.69-11.02.1-22.04,0-32.9-2.23-11.24-2.31-22.35-5.07-32.75-10.11-2.45-1.19-2.72-1.4-3.45-2.51"/>
      <path class="cls-4" d="m35.26,111.16c1.28-1.12,2.77-1.52,4.32-1.69,5.04-.58,9.99.1,14.85,1.3,10.89,2.68,21.52,6.16,31.73,10.82,3.16,1.44,6.3,2.97,8.98,5.26.27.23.57.44.82.69.59.57,1.25,1.18.71,2.07-.51.84-1.37.7-2.17.47-1.56-.45-2.98-1.2-4.35-2.04-4.76-2.95-9.81-5.28-15.16-6.95-7.41-2.31-14.58-5.32-22.1-7.31-5.48-1.45-11.01-2.68-16.75-2.29-.26.02-.54.06-.9-.33"/>
      <path class="cls-4" d="m141.54,345.92c-.85,0-1.7.05-2.52-.24-.44-.16-.86-.44-.87-.91,0-.43.46-.64.84-.76,1.87-.6,3.74-1.16,5.61-1.77,5.15-1.66,10.2-3.56,14.4-7.11,3.19-2.69,6.29-5.5,9.43-8.26,2.94-2.58,5.88-5.17,8.82-7.75.2-.17.41-.35.65-.46.76-.35,1.6-.62,2.21.12.56.67.31,1.49-.18,2.1-1.29,1.64-2.69,3.21-3.97,4.85-4.05,5.16-9.02,9.32-14.24,13.22-3.48,2.6-7.43,4.17-11.56,5.38-2.83.83-5.66,1.6-8.63,1.58"/>
      <path class="cls-4" d="m3.69,177.86c4.36.08,8.71,1.13,13.06,2.03,11.58,2.39,22.88,5.83,34.19,9.22,2.59.78,5.04,2.03,7.54,3.09.62.26,1.32.62,1.12,1.45-.23.89-1.06.93-1.76.77-2.52-.58-5.04-1.16-7.52-1.89-15.22-4.47-30.48-8.79-45.94-12.35-1.21-.28-2.43-.56-3.63-.88-.37-.1-.81-.32-.72-.82.08-.43.54-.45.88-.48.89-.08,1.78-.1,2.79-.15"/>
      <path class="cls-4" d="m114.43,311.5c-1.27-.12-2.34.13-3.25-.5-.28-.19-.67-.4-.59-.81.07-.38.49-.35.78-.4,6.29-1.04,12.15-3.42,18-5.79,7.27-2.94,14.15-6.7,21.03-10.45,2.11-1.15,4.23-2.27,6.36-3.39.31-.16.66-.27,1.01-.32.73-.11,1.56-.13,1.82.69.21.64-.21,1.22-.78,1.68-8.28,6.52-17.26,11.74-27.33,15.06-4.78,1.58-9.54,3.18-14.53,3.98-.92.15-1.86.19-2.53.26"/>
      <path class="cls-4" d="m18.84,141.24c7.53-.2,14.75,1.51,21.91,3.63,6.31,1.87,12.25,4.6,18.11,7.56,1.19.6,2.42,1.15,3.61,1.75,1.47.74,2.01,1.73,1.52,2.69-.51,1-1.57,1.2-3.04.55-5.26-2.31-10.25-5.21-15.65-7.22-8.85-3.3-17.91-5.67-27.33-6.59-2.53-.25-5.06-.39-7.6-.1-.38.04-.82,0-.91-.37-.1-.37.32-.61.61-.78,1.26-.73,2.66-1.03,4.09-1.1,1.56-.08,3.12-.02,4.68-.02"/>
      <path class="cls-4" d="m101.13,273.16c-.54-.05-1.25-.09-1.95-.21-.58-.1-1.43-.03-1.47-.84-.04-.95.91-.84,1.5-.97,2.26-.48,4.56-.85,6.82-1.36,11.35-2.54,22.33-6.14,32.9-11.01,2.33-1.07,4.73-2.11,7.3-2.56.31-.05.62-.12.92-.12.69,0,1.41.08,1.62.88.2.76-.41,1.1-.97,1.41-11.83,6.38-24.08,11.62-37.49,13.68-2.99.46-5.98.93-9.19,1.1"/>
      <path class="cls-4" d="m120.75,322.38c-.86-.03-1.51.07-2.08-.24-.36-.2-.94-.23-.87-.85.06-.54.5-.7.95-.79,2.98-.59,5.8-1.67,8.57-2.86,5.24-2.26,10.32-4.85,15.17-7.86,6.09-3.78,12.19-7.54,18.29-11.31.15-.09.31-.17.47-.26.68-.39,1.38-.55,1.91.16.56.75.02,1.32-.47,1.86-.91.99-1.96,1.8-3,2.65-7.73,6.37-16.39,11.21-25.46,15.33-3.89,1.77-7.85,3.41-12.13,4.02-.53.08-1.06.12-1.35.16"/>
      <path class="cls-4" d="m94.22,262.27c-.68-.08-1.71.25-1.84-.62-.13-.89.96-.92,1.58-1.06,8.12-1.89,16.15-4.12,24.09-6.67,7.43-2.4,14.56-5.59,21.81-8.45,1.2-.47,2.42-.92,3.67-1.25.79-.21,1.87-.47,2.24.53.34.92-.59,1.42-1.29,1.78-6.29,3.26-12.48,6.74-19.27,8.9-8.84,2.81-17.77,5.27-26.99,6.5-1.32.18-2.66.23-3.99.34"/>
      <path class="cls-4" d="m112.93,296.25c-.78-.04-1.36-.03-1.93-.1-.56-.07-1.25-.09-1.27-.89-.02-.73.61-.78,1.12-.9,2.38-.58,4.77-1.11,7.14-1.73,9.68-2.54,18.97-6.17,28.22-9.94,1.65-.67,3.32-1.3,4.99-1.91.45-.17.95-.25,1.43-.27.61-.04,1.18.19,1.41.8.22.58-.15,1.02-.58,1.39-.99.85-2.2,1.35-3.33,1.97-10.25,5.67-21.25,9.13-32.75,11.1-1.53.26-3.1.34-4.46.49"/>
      <path class="cls-4" d="m105.02,286.62c-.48-.03-1.06-.01-1.63-.12-.44-.09-1.1-.07-1.13-.72-.04-.67.59-.69,1.05-.79,1.04-.24,2.1-.43,3.14-.67,10.53-2.47,20.71-6.03,30.71-10.1,3.63-1.48,7.24-3.03,11.02-4.11.64-.18,1.31-.3,1.97-.33.42-.02.92.08,1.08.62.14.49-.07.89-.43,1.18-.31.25-.67.44-1.02.64-12.15,6.66-25.12,11.01-38.69,13.64-1.44.28-2.91.45-4.36.65-.53.07-1.07.08-1.71.12"/>
      <path class="cls-4" d="m153.15,352.65c-.65-.06-1.14-.07-1.62-.15-.5-.08-1.01-.29-1.07-.85-.05-.53.45-.71.87-.88,1.12-.45,2.21-.97,3.36-1.32,5.87-1.79,10.65-5.29,14.94-9.54,3.93-3.88,7.84-7.79,11.76-11.68.63-.63,1.23-1.29,2.07-1.67.53-.24,1.04-.24,1.51.14.49.4.48.95.29,1.47-.16.45-.43.87-.69,1.29-3.75,6.18-8.77,11.17-14.34,15.71-4.44,3.62-9.28,6.29-14.99,7.2-.74.12-1.5.21-2.09.29"/>
      <path class="cls-4" d="m130.59,329.86c-1.01-.13-2.37.07-2.53-.89-.15-.91,1.23-.72,1.93-.97,6.02-2.17,11.73-4.97,17.19-8.29,6.36-3.88,12.42-8.19,18.47-12.52.65-.46,1.38-.81,2.09-1.17.47-.24.97-.22,1.36.18.42.44.23.93-.04,1.36-.9,1.47-2.24,2.53-3.47,3.69-6.46,6.09-14.01,10.56-21.96,14.35-3.89,1.85-7.88,3.58-12.23,4.17-.31.04-.62.08-.82.11"/>
      <path class="cls-4" d="m133.96,338.83c-.62-.03-1.25-.02-1.87-.1-.39-.05-.87-.17-.9-.65-.02-.39.38-.56.73-.68.72-.25,1.42-.55,2.15-.72,4.96-1.19,9.35-3.62,13.76-6.1,6.37-3.58,11.41-8.61,16.09-14.1,1.07-1.25,2.25-2.41,3.44-3.55.51-.5,1.22-.92,1.91-.36.65.53.34,1.28.01,1.84-2.65,4.58-5.78,8.78-9.81,12.26-4.94,4.25-10.54,7.43-16.45,10.1-2.84,1.29-6.16,2.04-9.07,2.06"/>
      <path class="cls-4" d="m91.26,251.09c-.6,0-.83.01-1.05,0-.64-.05-1.53.16-1.64-.73-.11-.85.79-.99,1.39-1.18,4.08-1.3,8.25-2.26,12.43-3.19,8.12-1.81,15.88-4.75,23.72-7.42,2.02-.69,4.07-1.31,6.14-1.83.8-.2,2.02-.6,2.39.41.41,1.12-.82,1.51-1.61,1.93-10.57,5.64-21.87,9.04-33.68,10.89-2.82.44-5.62.96-8.09,1.12"/>
      <path class="cls-4" d="m161.98,359.02c-.16,0-.47.02-.78-.04-.71-.14-.81-.5-.28-.99.63-.58,1.43-.9,2.19-1.27,6.24-3.07,12.13-6.63,16.84-11.87,3.4-3.78,6.8-7.56,10.19-11.34.66-.73,1.33-1.45,2.21-1.92.54-.28,1.13-.42,1.62.06.44.43.34.99.14,1.51-.1.25-.21.5-.36.72-4.59,6.79-9.57,13.23-16.17,18.22-3.62,2.73-7.65,4.73-11.92,6.25-1.14.41-2.32.62-3.69.67"/>
      <path class="cls-4" d="m177.23,362.25c-.55-.02-1.16-.03-1.31-.55-.13-.47.43-.71.78-.97,3.57-2.67,7.22-5.24,10.4-8.37,5.04-4.96,9.34-10.52,12.8-16.71.28-.51.55-1.03.91-1.48.4-.51.85-1.2,1.62-.89.82.33.78,1.13.59,1.85-.18.69-.42,1.36-.67,2.03-2.33,6.33-5.77,11.95-10.74,16.56-3.62,3.35-7.61,6.17-12.23,8.01-.71.28-1.43.48-2.14.52"/>
      <path class="cls-4" d="m86.9,241.22c-.18,0-.36.01-.54,0-.67-.05-1.49-.03-1.6-.87-.11-.83.72-.93,1.29-1.07,10.12-2.6,19.49-7.13,29.02-11.25,1.55-.67,3.11-1.36,4.82-1.54.62-.07,1.35-.1,1.6.64.24.75-.37,1.15-.91,1.45-9.5,5.25-19.16,10.14-29.97,12.19-1.23.23-2.45.47-3.71.46"/>
      <path class="cls-4" d="m211.22,340.5c-.08.26-.13.67-.3,1.03-3.46,7.24-7.37,14.15-14.13,18.93-1.38.98-2.82,1.88-4.4,2.5-.54.21-1.1.37-1.67.46-.46.08-1.04.2-1.27-.4-.21-.53.27-.8.59-1.08.84-.73,1.72-1.41,2.55-2.15,5.19-4.7,9.05-10.51,13.23-16.04,1.04-1.38,1.95-2.88,3.2-4.1.45-.43.99-.63,1.59-.39.48.19.56.65.61,1.24"/>
      <path class="cls-4" d="m216.28,347.71c-.62,4.52-2.36,8.67-4.97,12.47-1.77,2.58-3.95,4.81-6.02,7.13-.21.23-.43.46-.67.65-.64.49-1.41.75-2.11.29-.77-.51-.57-1.36-.28-2.07.77-1.82,2.09-3.31,3.29-4.85,3.43-4.4,6.52-9.01,9.05-13.99.04-.08.06-.18.12-.24.41-.34.4-1.31,1.16-1.04.68.24.27,1.02.42,1.63"/>
      <path class="cls-6" d="m163.85,85.33c1.19-.16,2.38-.3,3.57-.5.61-.1,1.38-.22,1.38-1,0-.77-.74-.91-1.37-.99-2.03-.24-4.07-.47-6.1-.7-.58-.07-1.23-.18-1.49.52-.25.67.1,1.24.62,1.64.99.76,2.14,1.08,3.4,1.03m19.01-.8s0,.04,0,.06c-.36,0-.71.02-1.07,0-.47-.03-.99-.02-1.05.53-.05.43.26.8.71,1.02,2.76,1.35,5.59,1.68,8.52.64.34-.12.88-.18.78-.74-.09-.52-.46-.87-1-.92-2.29-.21-4.59-.39-6.89-.58m-13.56,59.38c0-1.85.03-3.86,0-5.86-.11-5.2-1.17-6.62-6.16-8.29-1.9-.64-3.8-1.25-5.58-2.2-.79-.42-1.17-.96-1.2-1.89-.15-5.12.28-10.23.38-15.35.08-4.04.46-8.07.42-12.11-.01-1.17.06-2.41-.8-3.51-.62-.79,0-1.82.09-2.73.47-4.89,1.25-9.71,3.69-14.1.87-1.57,1.99-2.95,3.21-4.22,2.92-3.05,6.12-5.84,8.54-9.35.42-.61,1-.98,1.75-1.13,1.79-.35,3.57-.79,5.32-1.33,1.08-.34,1.34-.04,1.19,1.11-.76,5.86-2.82,11.31-5.49,16.51-1.85,3.61-2.87,7.34-2.99,11.36-.04,1.33-.2,2.66-.3,3.99-.08,1.03-.49,1.6-1.66,1.63-1.1.03-2.19.38-3.29.46-3.47.24-5.03,2.57-6.15,5.46-.25.63.14.91.46,1.24.34.35.76.45,1.18.08.47-.41.93-.82,1.39-1.24,1.83-1.68,4.13-2.16,6.48-2.5,4.18-.61,4.55-1.99,4.79-5.45.17-2.48.18-5.01.69-7.43.78-3.74,2.41-7.19,4.91-10.1,2.64-3.08,5.81-5.61,9.09-7.99.62-.45,1.08-.55,1.89-.17,2.61,1.22,5.51,1.71,8.11,3.02,5.24,2.63,9.75,5.85,11.11,12.09.7,3.2.87,6.42.95,9.67.05,2.05.28,4.08.72,6.09.91,4.09,3.51,6.69,7.25,8.27,1.69.71,3.34,1.5,4.79,2.62,1.74,1.34,2.17,3.28,2.11,5.37-.09,3.11-1.6,5.62-3.48,7.92-3.54,4.32-7.32,8.46-10.24,13.25-3.27,5.38-5.37,11.16-4.92,17.58.3,4.35,1.19,8.54,4,12.1.86,1.08.61,1.45-.78,1.66-4.59.68-9.14,1.58-13.71,2.38-4.96.86-9.95,1.61-14.87,2.68-4.06.89-8.1,1.88-12.15,2.79-1.55.35-3.13.58-4.69.88-.45.09-.9.18-1.23-.24-.34-.43-.06-.84.13-1.24,2.24-4.65,3.54-9.61,4.16-14.68.68-5.61,1.12-11.25.9-17.07"/>
      <path class="cls-6" d="m150.22,40.55c-.23,3.08-.45,6.24-.69,9.4-.11,1.43-.09,2.85.22,4.26.14.63.23,1.25,1.05,1.34.74.08,1.21-.32,1.47-.93.92-2.17,1.91-4.33,2.66-6.56.68-2.02,1.08-4.14,1.62-6.21.1-.37.11-.91.63-.89.67.03.48.64.49,1.04.14,5.02-.64,9.95-1.51,14.87-.39,2.21-.45,4.43-.57,6.65-.12,2.13,1.32,3.33,3.49,3.14,2.52-.22,4.68-1.36,6.84-2.53.27-.15.54-.32.81-.47.34-.18.69-.23.96.11.29.37.04.68-.2.94-1.25,1.34-2.47,2.69-3.77,3.98-3.13,3.12-6.28,6.21-8.12,10.35-1.79,4.02-2.94,8.22-3.56,12.56-.24,1.64-.3,1.71-1.94,1.35-5.26-1.15-10.55-2.1-15.95-2.13-2.22,0-4.44.23-6.65.39-1.16.09-1.56-.25-1.18-1.37,2.08-6.01,2.11-12.23,2.11-18.49,0-10.03.37-20.06.2-30.1-.04-2.72-.24-5.43.04-8.15.08-.75.18-1.51.35-2.24.14-.61.38-1.28,1.15-1.28.76,0,1,.66,1.2,1.26.15.42.25.86.32,1.29,1.17,6.58,2.33,13.16,3.5,19.74.13.74.36,1.47.54,2.2.16.6.5,1.2,1.13,1.13.7-.08.89-.72.88-1.43-.03-6.53,1.01-12.96,1.88-19.41.11-.8.1-2.05,1.07-2.03,1.07.02.76,1.31.9,2.07.91,5.07.41,10.13-.09,15.19-.11,1.16-.12,2.31.04,3.46.11.8.46,1.44,1.24,1.54.82.11,1.45-.4,1.7-1.21.57-1.83,1.13-3.66,1.64-5.51,1.04-3.79,1.6-7.68,2.35-11.52.13-.68,0-1.88.88-1.82.82.05.6,1.24.67,1.93.13,1.33.14,2.67.2,4.08"/>
      <path class="cls-5" d="m182.86,84.53c2.3.19,4.59.38,6.89.58.54.05.9.39,1,.92.1.56-.43.62-.78.74-2.93,1.04-5.76.7-8.52-.64-.45-.22-.76-.58-.71-1.02.07-.55.58-.56,1.05-.53.35.03.71,0,1.07,0,0-.02,0-.04,0-.06"/>
      <path class="cls-5" d="m163.85,85.33c-1.26.04-2.4-.28-3.4-1.03-.52-.4-.87-.97-.62-1.64.26-.7.91-.59,1.49-.52,2.03.23,4.07.45,6.1.7.63.08,1.37.22,1.37.99,0,.78-.77.9-1.38,1-1.18.2-2.38.34-3.57.5"/>
      <path class="cls-3" d="m283.44,294.31c.06.02.11-.03.15-.19.08-.35.2-.69.25-1.05.05-.36.03-.74-.15-1.05-.07-.11-.17-.22-.3-.22-.1,0-.18.07-.24.14-.11.13-.18.29-.22.46-.1.38-.09.79.04,1.17.06.19.15.37.26.53.07.1.15.19.21.21m-16.6-1.05c-.72-.03-1.53.37-1.38,1.16.05.28.28.52.62.57.42.06.85,0,1.24-.18.25-.11.78-.29.86-.59.09-.32-.4-.59-.62-.75-.19-.14-.45-.21-.71-.22m-9.55-.44c.02-.37-.07-.66-.27-.69-.46-.08-.93-.03-1.32.25-.44.32-.7.99-.6,1.52.11.59.8.95,1.33.66.56-.31.83-1.14.85-1.74m4.21.6c.61-.05,1.25-.55,1.46-1.05.24-.57.05-1.48-.71-1.37-.1.01-.2,0-.31.01-.91.07-2.14,1.38-1.19,2.18.22.18.48.25.75.22m2.43,2c-.58.25-1.15.46-1.68.74-.83.43-1.72,1.11-1.41,2.19.2.72.92.91,1.56.64.68-.29,1.09-.79,1.28-1.51.17-.66.34-1.31.25-2.06m12.32-2.17c.17-.15.31-.23.39-.35.28-.41.55-.82.79-1.25.5-.9.8-1.89,1.01-2.89.12-.59.28-1.17.3-1.77.02-.44-.04-1.31-.52-1.51-.49-.21-.87.45-1.01.82-.25.67-.36,1.39-.45,2.1-.02.14-.04.28-.06.42-.21,1.44-.3,2.9-.46,4.44m2.08-1.68c.66.09,1.12.74,1.28,1.39.17.66.14,1.36.29,2.03.16.66.6,1.34,1.27,1.46.57.1,1.14-.25,1.51-.7.11-.14.21-.29.24-.46.05-.3-.13-.58-.29-.83-.46-.77-.8-1.71-.33-2.56.23-.43.69-.7,1.17-.66.82.07,1.14.94,1.08,1.68-.05.63-.31,1.24-.38,1.87.27.21.65-.02.93-.22.29-.21.75-.37.93-.05.09.15.06.35-.05.49-.59.71-1.71.28-2.41.78-.26.18-.42.47-.63.7-.74.83-2.2.93-2.97.13-.94-.98-.57-2.63-1.14-3.86-.08-.17-.2-.35-.38-.39-.16-.04-.33.05-.47.14-1.02.66-1.71,1.8-1.82,3.01-.03.29.02,1.37-.5,1.22-.25-.07-.28-.32-.31-.54-.04-.32-.03-.64.02-.96.01-.06.04-.39.1-.41-1.07.48-2.49-.28-2.68-1.44-.39,1.29-1.95,2.09-3.23,1.67-.28-.09-.57-.24-.86-.18-.24.05-.43.22-.63.36-.97.69-2.43.56-3.27-.28-.02.91-.06,1.84-.35,2.71-.29.86-.89,1.67-1.74,2.01-.85.34-1.96.08-2.41-.71-.54-.93,0-2.16.82-2.85.82-.69,1.88-1.03,2.82-1.55-.1-.54-.2-1.09-.3-1.63-.72.68-1.67,1.42-2.61,1.1-.44-.15-.78-.51-1.23-.64-.58-.17-1.36.04-1.7-.46-.33,1.02-.91,2.21-1.98,2.29-1.07.07-1.87-1.23-1.53-2.24.34-1.01,1.5-1.58,2.57-1.51.1-.52-.35-1.03-.86-1.16-.47-.11-.96.02-1.4.22-.05.02-.1-.03-.08-.08.2-.46.64-.81,1.14-.9.55-.1,1.14.13,1.48.57.37.48.42,1.12.66,1.67.24.55.85,1.07,1.4.82.43-.2.55-.75.77-1.17.54-1.04,2.04-1.44,3.02-.8,1.05.69,1.27,2.11,1.39,3.36.26-.78.97-1.39,1.78-1.53.81-.14,1.68.2,2.19.85.18-.67-.08-1.44-.64-1.86-.56-.41-1.38-.44-1.96-.06.27-.72,1.21-1.05,1.93-.77.72.27,1.19,1.01,1.31,1.77.11.74.03,1.68.71,2.03.3.15.64.13.94-.01,1.27-.6,1.4-2.18,1.41-3.51l-.55-.08c-.22-.05-.24-.23-.12-.35.19-.19.49-.22.74-.31.04-.69.03-1.34.15-1.99.04-.21.32-.23.4-.04.23.56.21,1.16.26,1.79.26-.07.42-.15.6-.17.2-.02.37.16.32.35-.07.28-.48.24-.71.4-.25.17-.26.53-.23.84.06.66.19,1.32.38,1.95.14.47.38.99.91,1.03.27.02.54-.11.72-.32.4-.48.38-1.1.38-1.68,0-2.06.35-4.12,1.05-6.06.27-.74.78-1.59,1.57-1.5.31.04.59.22.78.48.32.44.38.98.38,1.51.03,1.66-.34,3.33-1.07,4.83.01,0,.02,0,.04,0"/>
      <path class="cls-3" d="m264.38,304.34c-.28.08-.47-1.11-1.01-.8-.08.04-.1.3-.05.42.2.49.59.55,1.07.38m10.4,1.68c.28-.49.51-1.03.54-1.6.01-.23-.08-.47-.29-.58-.01,0-.03-.01-.04-.01-.02,0-.03.01-.04.02-.28.26-.38.65-.37,1.03,0,.21.03.41.07.61.02.08.17.47.13.53m-14.17-.44c-.6.04-1.61.9-1.27,1.55.16.3.5.44.79.22.51-.39.58-1.2.48-1.77m1.9-1.81c-.54.74-.37,1.65.13,2.19.16.18.43.22.65.15.19-.06.4-.19.55-.33.05-.04.36-.52.33-.52-.93-.06-1.44-.58-1.66-1.48m7.49,1.72s0,.01.01.01c.19.18.84-.44.99-.57.32-.28.6-.59.84-.93.62-.88.93-1.88,1.25-2.87.15-.46.24-.95.29-1.44.02-.21-.1-.56-.3-.66-.71-.35-1.3.83-1.53,1.32-.41.83-.78,1.68-1.06,2.56-.14.44-.26.89-.35,1.34-.04.22-.08.45-.1.68-.01.13-.1.44-.03.56m7.7-.21c-.24.27-.45.58-.67.87-.5.63-1.01.98-1.81,1.08-.14.02-.31.1-.41.2-.66.66-1.45,1.05-2.34,1.31-.98.28-1.81.05-2.47-.66-.28-.31-.37-.78-.57-1.17-.06-.12-.17-.25-.29-.29-.22-.08-.46-.1-.7-.12-.71-.06-1.01-.58-1.23-1.15-.21-.54-.31-1.12-.32-1.7,0-.28.02-.56.06-.84.03-.28.11-.6.08-.88-.13-.02-.33.1-.45.14-.12.04-.25.08-.37.13-.16.62-.27,1.18-.46,1.71-.08.22-.25.37-.39.55-.23.31-.31.62-.44.97-.11.3-.29.57-.51.8-.48.49-1.16.75-1.83.56-.5-.15-.76-.61-.95-1.08-.08-.21-.13-.42-.23-.74-.06.15-.11.22-.11.29,0,.28.02.56.03.84.03.74-.37,1.62-1.04,1.98-.71.38-1.59-.14-1.69-.93-.09-.75.36-1.2.87-1.62.28-.23.57-.44.86-.67-.34-.69-.67-1.37-1.31-1.8-.24.49-.46,1-.74,1.47-.62,1.04-1.5,1.8-2.63,2.25-.21.08-.53.08-.76.05-.17-.03-.24-.11-.34-.24,1.6-.43,2.73-1.42,3.5-2.88.2-.38.25-.85.35-1.28.06-.27.27-.37.53-.25.86.43,1.41,1.14,1.82,1.97.15.31.31.4.59.17.06-.05.17-.04.23-.06.12-.69.6-1.01,1.16-1.27.07-.03.15-.04.21-.08.8-.51,1.47-.02,1.83.58.07.11.15.22.28.42.14-.46.3-.82.35-1.2.03-.23-.07-.49-.15-.72-.1-.3.03-.47.3-.44.63.06,1.22-.34,1.82-.47.29-.06.55.12.42.44-.06.14-.12.3-.12.45-.01.61.02,1.23-.01,1.84-.04.76.28,2.08,1.25,2.07.48,0,.38-.72.41-1.03.19-1.85.81-3.74,1.82-5.31.03-.05.06-.09.09-.14.25-.37.58-.71.93-.98.94-.7,1.96.21,1.9,1.23-.05.83-.22,1.62-.49,2.4-.27.8-.54,1.58-1.02,2.28-.52.75-1.19,1.49-2.05,1.9-.17.08-.37.1-.43.25-.06.16.1.47.16.61.16.34.44.74.8.88,1.02.41,1.83-.06,2.65-.56.26-.16.47-.37.66-.52.03-.02-.28-.64-.3-.7-.11-.3-.17-.61-.19-.92-.03-.47.03-.95.19-1.39.08-.22.16-.38.34-.53.18-.14.39-.26.62-.3.42-.08.76.36.9.7.17.44.14.92,0,1.36-.16.49-.32.98-.46,1.48.25-.12.53-.24.73-.44.38-.36.59-.81.79-1.28.33-.81.61-1.7.75-2.56.1-.64.19-1.27.34-1.9.03-.15.07-.3.17-.41.23-.26.6-.04.6.28,0,.3-.07.6-.13.95,0,0,.52-.08.57-.09.16-.04.72-.04.62.27-.08.23-.36.37-.58.42-.26.06-.52.1-.77.16-.17.74-.43,1.6-.36,2.52.04.54.25,1.02.58,1.44.32.4.76.6,1.25.69.6.11,1.22.11,1.82-.04.58-.14,1.11-.47,1.62-.77.09-.05.18-.1.28-.15.05-.02.1-.05.14-.07.05-.02.11-.05.16-.05.18.01-.18.59-.22.64-.91,1.14-2.75,1.51-4.12,1.15-.47-.12-.89-.38-1.22-.73-.16-.18-.3-.37-.41-.58-.13-.22-.18-.54-.36-.73"/>
    </g>
  </g>
</svg>