<?xml version="1.0" encoding="UTF-8"?>
<svg id="Layer_2" data-name="Layer 2" xmlns="http://www.w3.org/2000/svg" viewBox="0 0 65.02 121.26">
  <defs>
    <style>
      .cls-1 {
        fill: #2c08c2;
        stroke-width: 0px;
      }
    </style>
  </defs>
  <g id="Layer_1-2" data-name="Layer 1">
    <!-- <path class="cls-1" d="m16.72,8.45c.87-1.34,1.65-2.47,2.36-3.65,4.46-7.43,16.22-5.94,18.2,2.52,2.62,11.17-4.42,22.35-12.85,29.07-1.1.88-2.25,1.7-3.45,2.45-.67.42-2.77,2.07-3.55,1.94-3.3-.57-6.37-3.43-8.62-5.74-3.86-3.97-6.03-9.25-7.37-14.55C.39,16.28-.59,11.61.43,7.32,1.13,4.35,3.02,2.01,5.99,1.12c2.2-.66,4.28-.58,6.39,1.13,2.08,1.68,3.11,3.85,4.34,6.2Z"/> -->
    <path class="cls-1" d="m20.09,104.27c.23-.85.46-1.59.63-2.33,1.1-4.68,7.56-5.88,10.04-1.74,3.27,5.46,1.44,12.55-1.88,17.52-.43.65-.9,1.28-1.41,1.87-.28.33-1.11,1.56-1.55,1.62-1.84.26-3.95-.74-5.52-1.58-2.71-1.45-4.75-3.87-6.35-6.44-1.27-2.03-2.57-4.34-2.76-6.77-.13-1.69.47-3.24,1.89-4.21,1.05-.72,2.16-1.03,3.56-.48,1.38.54,2.29,1.51,3.34,2.54Z"/>
    <path class="cls-1" d="m51.66,59.15c.94-.59,1.76-1.07,2.54-1.6,4.96-3.36,11.89,1,10.67,6.88-1.61,7.76-9.27,12.72-16.52,14.47-.95.23-1.91.41-2.87.53-.54.07-2.34.49-2.79.18-1.9-1.32-2.99-4.01-3.73-6.11-1.27-3.61-1.09-7.56-.38-11.27.56-2.93,1.31-6.14,3.19-8.53,1.3-1.65,3.17-2.57,5.29-2.26,1.57.23,2.85.88,3.68,2.57.81,1.66.83,3.32.91,5.15Z"/>
  </g>
</svg>