<?xml version="1.0" encoding="UTF-8"?>
<svg id="Layer_2" data-name="Layer 2" xmlns="http://www.w3.org/2000/svg" xmlns:xlink="http://www.w3.org/1999/xlink" viewBox="0 0 319.6 39.5">
  <defs>
    <style>
      .cls-1 {
        clip-path: url(#clippath);
      }

      .cls-2 {
        fill: none;
      }

      .cls-2, .cls-3 {
        stroke-width: 0px;
      }

      .cls-4 {
        fill: #1d1d1b;
        font-family: Sprat-Regular, Sprat;
        font-size: 32px;
      }

      .cls-3 {
        fill: #2b08c2;
      }
    </style>
    <clipPath id="clippath">
      <rect class="cls-2" width="319.6" height="39.5"/>
    </clipPath>
  </defs>
  <g id="Layer_1-2" data-name="Layer 1">
    <g class="cls-1">
      <text class="cls-4" transform="translate(17.64 31.43)"><tspan x="0" y="0">Giulia</tspan></text>
      <text class="cls-4" transform="translate(186.18 31.43)"><tspan x="0" y="0">Diego</tspan></text>
      <path class="cls-3" d="m151.57,12.76c.54-.84,1.03-1.55,1.48-2.29,2.79-4.65,10.15-3.72,11.39,1.58,1.64,6.99-2.77,13.98-8.04,18.19-.69.55-1.41,1.06-2.16,1.53-.42.26-1.73,1.3-2.22,1.21-2.06-.36-3.99-2.15-5.39-3.59-2.42-2.49-3.78-5.79-4.61-9.11-.66-2.62-1.27-5.54-.63-8.23.44-1.86,1.62-3.32,3.48-3.88,1.38-.41,2.68-.36,4,.7,1.3,1.05,1.95,2.41,2.71,3.88"/>
    </g>
  </g>
</svg>